# xmcd CD database file
#
# Track frame offsets:
#	150
#	32815
#	48397
#	64225
#	83177
#	99990
#	124382
#	142460
#	163845
#	183827
#
# Disc length: 2650 seconds
#
# Revision: 0
# Processed by: cddbd v1.5PL3 Copyright (c) Steve Scherf et al.
# Submitted via: CDex 1.50beta8
#
DISCID=910a580a
DTITLE=和田アキ子 - PARK AVENUE 7 P.M.
DYEAR=1900
DGENRE=Pop
TTITLE0=初秋
TTITLE1=燃えるこころ
TTITLE2=ブラディー・マリー
TTITLE3=真夜中
TTITLE4=パーク・アベニュー７：Ｐ．Ｍ．
TTITLE5=さよならを言わないで
TTITLE6=優しさもなく
TTITLE7=船乗りたちが集まる店
TTITLE8=スクリーン
TTITLE9=コーラス・ガール
EXTD=
EXTT0=
EXTT1=
EXTT2=
EXTT3=
EXTT4=
EXTT5=
EXTT6=
EXTT7=
EXTT8=
EXTT9=
PLAYORDER=
